# xmcd CD database file
#
# Track frame offsets:
#	150
#	19697
#	40937
#	76370
#	112390
#	148452
#	181420
#	201637
#	224027
#	245547
#	277232
#
# Disc length: 4060 seconds
#
# Revision: 0
# Processed by: cddbd v1.5.1PL0 Copyright (c) Steve Scherf et al.
# Submitted via: CDex 1.51
#
DISCID=bc0fda0b
DTITLE=Cunus Chestnut - TRIBUTE TO DUKE ELLINGTON
DYEAR=1998
DGENRE=Jazz
TTITLE0=C Jam Blues
TTITLE1=Satin Doll
TTITLE2=In A Sentimental Mood
TTITLE3=Take The A Train
TTITLE4=Angelica
TTITLE5=Mood Indigo
TTITLE6=Don'T Get Around Much Anymore
TTITLE7=The Star Crossed Lovers
TTITLE8=Come Sunday
TTITLE9=Caravan
TTITLE10=Lotus Blossom
EXTD=YEAR: 1998
EXTT0=
EXTT1=
EXTT2=
EXTT3=
EXTT4=
EXTT5=
EXTT6=
EXTT7=
EXTT8=
EXTT9=
EXTT10=
PLAYORDER=
